<svg xmlns="http://www.w3.org/2000/svg" xmlns:xlink="http://www.w3.org/1999/xlink" width="500" height="80" viewBox="0 0 500 80" fill="none">
  <!-- 左侧图标部分（去重后） -->
  <g transform="translate(0, 5)"> <!-- 轻微垂直偏移，让图标和文字居中对齐 -->
    <rect x="35.996063232421875" y="0.4376068115234375" width="51" height="51" transform="rotate(44.894611643123426 35.996063232421875 0.4376068115234375)" fill="#00BAAD" ></rect>
    <rect x="72.5623779296875" y="0" width="51" height="51" transform="rotate(44.894611643123426 72.5623779296875 0)" fill="#43CF7C" ></rect>
    <rect x="63.5623779296875" y="27" width="12.733133401607645" height="12.73830162786312" transform="rotate(44.894611643123426 63.5623779296875 27)" fill="#43CF7C" ></rect>
    <rect x="63.5623779296875" y="27" width="12.733111782778302" height="12.73830162786312" transform="rotate(44.894611643123426 63.5623779296875 27)" fill="#00BAAD" ></rect>
    <rect x="54.5623779296875" y="36" width="12.73312263188609" height="13.446682803953601" transform="rotate(44.894611643123426 54.5623779296875 36)" fill="#00BAAD" ></rect>
    <rect x="54.5623779296875" y="18" width="12.733111782778302" height="12.73830162786312" transform="rotate(44.894611643123426 54.5623779296875 18)" fill="#43CF7C" ></rect>
    <rect x="45.5623779296875" y="27" width="12.733133401607645" height="12.73830162786312" transform="rotate(44.894611643123426 45.5623779296875 27)" rx="6.366566700803823" fill="#43CF7C" ></rect>
  </g>

  <!-- 右侧文字部分（偏移x=120，垂直居中） -->
  <g transform="translate(120, 10)"> <!-- x偏移120避开图标，y偏移10垂直居中 -->
    <path fill="#000000"  d="M20.448 5.76L27.504 5.76L6.48 37.8L6.48 40.68L23.4 40.68L23.4 28.08L29.88 28.08L29.88 57.6L23.4 57.6L23.4 46.44L4.76837e-06 46.44L4.76837e-06 37.08L20.448 5.76ZM42.84 20.52Q42.84 16.992 43.956 14.112Q45.072 11.232 47.124 9.216Q49.176 7.20001 52.092 6.12001Q55.008 5.04 58.68 5.04Q62.352 5.04 65.268 6.12001Q68.184 7.20001 70.236 9.216Q72.288 11.232 73.404 14.112Q74.52 16.992 74.52 20.52L74.52 42.84Q74.52 46.368 73.404 49.212Q72.288 52.056 70.236 54.072Q68.184 56.088 65.232 57.204Q62.28 58.32 58.68 58.32Q55.008 58.32 52.092 57.24Q49.176 56.16 47.124 54.144Q45.072 52.128 43.956 49.248Q42.84 46.368 42.84 42.84L42.84 20.52ZM49.32 42.84Q49.32 47.304 51.84 49.932Q54.36 52.56 58.68 52.56Q63 52.56 65.52 49.932Q68.04 47.304 68.04 42.84L68.04 20.52Q68.04 16.056 65.52 13.428Q63 10.8 58.68 10.8Q54.36 10.8 51.84 13.428Q49.32 16.056 49.32 20.52L49.32 42.84ZM55.08 26.28Q55.08 24.48 56.052 23.4Q57.024 22.32 58.68 22.32Q60.336 22.32 61.308 23.4Q62.28 24.48 62.28 26.28L62.28 37.8Q62.28 39.6 61.308 40.68Q60.336 41.76 58.68 41.76Q57.024 41.76 56.052 40.68Q55.08 39.6 55.08 37.8L55.08 26.28ZM85.32 43.416Q85.32 40.896 86.076 38.736Q86.832 36.576 88.2 34.92Q89.568 33.264 91.476 32.148Q93.384 31.032 95.76 30.672L95.76 30.312Q93.672 29.952 91.944 28.908Q90.216 27.864 88.992 26.352Q87.768 24.84 87.084 22.896Q86.4 20.952 86.4 18.792Q86.4 15.696 87.516 13.176Q88.632 10.656 90.684 8.85601Q92.736 7.05601 95.58 6.048Q98.424 5.04 101.88 5.04Q105.336 5.04 108.18 6.048Q111.024 7.05601 113.076 8.85601Q115.128 10.656 116.244 13.176Q117.36 15.696 117.36 18.792Q117.36 20.952 116.676 22.896Q115.992 24.84 114.768 26.388Q113.544 27.936 111.816 28.944Q110.088 29.952 108 30.312L108 30.672Q112.752 31.464 115.596 34.848Q118.44 38.232 118.44 43.2Q118.44 46.512 117.288 49.32Q116.136 52.128 113.976 54.108Q111.816 56.088 108.756 57.204Q105.696 58.32 101.88 58.32Q98.064 58.32 95.004 57.24Q91.944 56.16 89.784 54.216Q87.624 52.272 86.472 49.5Q85.32 46.728 85.32 43.416ZM101.88 32.976Q97.416 32.976 94.716 35.676Q92.016 38.376 92.016 42.84Q92.016 47.232 94.716 50.076Q97.416 52.92 101.88 52.92Q106.344 52.92 109.044 50.076Q111.744 47.232 111.744 42.84Q111.744 38.376 109.044 35.676Q106.344 32.976 101.88 32.976ZM101.88 10.44Q97.776 10.44 95.436 12.816Q93.096 15.192 93.096 19.08Q93.096 23.04 95.508 25.632Q97.92 28.224 101.88 28.224Q105.84 28.224 108.252 25.632Q110.664 23.04 110.664 19.08Q110.664 15.192 108.324 12.816Q105.984 10.44 101.88 10.44ZM130.104 46.296L136.584 46.296L136.584 14.184L152.64 14.184L152.64 10.944L133.992 10.944L132.696 4.53601L152.64 4.53601L152.64 3.8147e-06L159.048 3.8147e-06L159.048 4.53601L178.992 4.53601L177.696 10.944L159.048 10.944L159.048 14.184L175.104 14.184L175.104 46.296L181.584 46.296L180.288 52.056L131.4 52.056L130.104 46.296ZM140.04 54L148.32 54L140.328 64.296L133.344 64.296L140.04 54ZM168.696 46.296L168.696 43.416L142.992 43.416L142.992 46.296L168.696 46.296ZM168.696 38.88L168.696 35.352L142.992 35.352L142.992 38.88L168.696 38.88ZM168.696 30.888L168.696 27.36L142.992 27.36L142.992 30.888L168.696 30.888ZM168.696 22.824L168.696 19.944L142.992 19.944L142.992 22.824L168.696 22.824ZM171.72 54L178.344 64.296L171.36 64.296L163.368 54L171.72 54ZM197.28 41.184L203.184 41.184L200.592 53.208L206.28 56.808L206.28 36.648L195.624 36.648L194.328 30.888L220.032 30.888L218.808 36.648L212.04 36.648L212.04 44.352L218.16 44.352L216.864 50.184L212.04 50.184L212.04 57.24L247.68 57.24L246.456 63L205.056 63L199.368 59.256L198.288 64.296L193.68 64.296L197.28 41.184ZM195.624 3.8147e-06L218.16 3.8147e-06L218.16 21.24L216.864 27L196.92 27L195.624 21.24L195.624 3.8147e-06ZM212.328 21.24L212.328 16.416L201.456 16.416L201.456 21.24L212.328 21.24ZM212.328 10.584L212.328 5.832L201.456 5.832L201.456 10.584L212.328 10.584ZM246.456 3.8147e-06L245.16 5.832L236.232 5.832L234.216 11.592L245.808 11.592L245.808 41.184L239.976 41.184L239.976 17.352L227.808 17.352L227.808 41.184L221.976 41.184L221.976 11.592L228.888 11.592L230.256 5.832L221.328 5.832L220.032 3.8147e-06L246.456 3.8147e-06ZM230.976 37.872L230.976 21.888L236.808 21.888L236.808 37.872L247.392 55.944L241.992 55.944L233.856 43.776L225.792 55.944L220.392 55.944L230.976 37.872ZM276.552 57.24L282.384 57.24L282.384 41.184L259.272 41.256L277.128 27L263.088 27L278.352 10.296L263.736 10.296L262.44 3.88801L295.128 3.88801L308.736 3.8147e-06L308.736 5.832L295.92 10.296L286.992 10.296L277.128 20.592L285.264 20.592L290.16 16.704L300.312 16.632L277.776 34.704L298.8 34.632L293.688 27.576L302.328 27.576L311.688 41.04L289.44 41.184L289.44 57.24L288.072 64.296L277.992 64.296L276.552 57.24ZM266.4 43.056L273.816 43.056L265.968 64.296L259.848 64.296L266.4 43.056ZM304.128 43.056L310.68 64.296L304.56 64.296L296.712 43.056L304.128 43.056ZM349.344 32.832L343.08 32.832L350.496 11.592L343.872 11.592L342.576 5.18401L356.76 5.18401L356.76 3.8147e-06L363.168 3.8147e-06L363.168 5.18401L377.28 5.18401L376.056 11.592L357.12 11.592L351.216 26.352L368.856 26.352L364.68 16.704L371.52 16.704L377.208 32.832L371.664 32.832L371.52 32.544L371.52 32.832L370.224 32.832L370.224 57.888L377.28 57.888L376.056 64.296L365.112 64.296L363.816 57.888L363.816 32.832L355.824 32.832L350.28 64.296L345.024 64.296L349.344 32.832ZM323.28 56.232L340.056 54L340.056 59.832L323.28 63L323.28 56.232ZM331.056 28.296L323.28 28.296L330.408 3.8147e-06L337.104 3.8147e-06L330.696 21.888L333.36 21.888L335.88 14.832L342.576 14.832L331.776 43.704L340.056 43.704L338.76 50.184L323.28 50.184L331.056 28.296Z"></path>
  </g>
</svg>
